<svg version="1.2" xmlns="http://www.w3.org/2000/svg" viewBox="0 0 454 454" width="32" height="32">
	<style>
		.s0 { fill: #354b00 } 
	</style>
	<g id="Layer 1">
		<path id="f" class="s0" d="m246.1 37.1h42.4v37.4h-42.9q-24.2 0-33.7 9.7-9.3 9.8-9.3 35.2v24.2h74v34.9h-74v238.5h-45.2v-238.5h-42.9v-34.9h42.9v-19.1q0-45.6 21.3-66.4 21.2-21 67.4-21z"/>
		<path id="i" class="s0" d="m41.1 417v-273.4h44.9v273.4zm0-323v-56.9h45v56.9z"/>
		<path id="f copy" class="s0" d="m316.9 416.9h-42.4v-37.4h42.9q24.2 0 33.7-9.7 9.3-9.8 9.3-35.2v-24.2h-74v-34.9h74v-238.5h45.2v238.5h42.9v34.9h-42.9v19.1q0 45.6-21.3 66.4-21.2 21-67.4 21z"/>
	</g>
</svg>